<svg width="123" height="110" viewBox="0 0 123 110" fill="none" xmlns="http://www.w3.org/2000/svg">
<path fill-rule="evenodd" clip-rule="evenodd" d="M61.3974 0.358978C51.3026 0.389156 41.5519 3.8601 33.9068 10.1448C28.0476 14.9575 23.8024 21.2286 22.7086 27.5215C9.88882 30.2195 0.205139 40.8658 0.205139 53.7215C0.205139 68.6554 13.2697 80.5705 29.1262 80.5705H57.5729V41.9742L41.1581 57.63C40.44 58.3146 39.4659 58.6992 38.4503 58.6992C37.4347 58.6992 36.4607 58.3146 35.7426 57.63C35.0244 56.9454 34.621 56.0169 34.621 55.0487C34.621 54.0805 35.0244 53.1519 35.7426 52.4673L58.6897 30.5914C59.045 30.2519 59.467 29.9825 59.9316 29.7987C60.3963 29.6149 60.8944 29.5203 61.3974 29.5203C61.9005 29.5203 62.3986 29.6149 62.8633 29.7987C63.3279 29.9825 63.7499 30.2519 64.1052 30.5914L87.0523 52.4673C87.7705 53.1519 88.1739 54.0805 88.1739 55.0487C88.1739 56.0169 87.7705 56.9454 87.0523 57.63C86.3342 58.3146 85.3602 58.6992 84.3446 58.6992C83.329 58.6992 82.3549 58.3146 81.6368 57.63L65.222 41.9742V80.5705H97.2561C111.131 80.5705 122.59 70.143 122.59 57.0394C122.59 45.1097 113.09 35.3895 100.912 33.7489C99.0537 14.9356 81.9734 0.358978 61.3974 0.358978ZM57.5729 106.092V80.5705H65.222V106.092C65.222 107.059 64.819 107.987 64.1018 108.67C63.3846 109.354 62.4118 109.738 61.3974 109.738C60.3831 109.738 59.4103 109.354 58.6931 108.67C57.9759 107.987 57.5729 107.059 57.5729 106.092Z" fill="#D9E5F1"/>
</svg>
