<svg width="224" height="35" viewBox="0 0 224 35" fill="none" xmlns="http://www.w3.org/2000/svg">
<path d="M54.8439 28.3099C51.1722 28.3099 48.3868 27.3604 46.4876 25.4612C44.5884 23.562 43.6389 20.7893 43.6389 17.1429V3.43093C43.6389 2.69659 43.8541 2.11418 44.2846 1.6837C44.715 1.2279 45.2975 1 46.0318 1C46.7661 1 47.3485 1.2279 47.779 1.6837C48.2095 2.11418 48.4247 2.69659 48.4247 3.43093V17.4088C48.4247 19.7131 48.9692 21.4603 50.058 22.6504C51.1469 23.8153 52.7422 24.3977 54.8439 24.3977C56.9203 24.3977 58.503 23.8026 59.5918 22.6125C60.6807 21.4223 61.2251 19.6877 61.2251 17.4088V3.43093C61.2251 2.69659 61.4403 2.11418 61.8708 1.6837C62.3013 1.2279 62.8837 1 63.618 1C64.3524 1 64.9348 1.2279 65.3653 1.6837C65.7957 2.11418 66.011 2.69659 66.011 3.43093V17.1429C66.011 20.7639 65.0614 23.5367 63.1622 25.4612C61.2631 27.3604 58.4903 28.3099 54.8439 28.3099Z" fill="#684DB9"/>
<path d="M81.9031 8.93849C83.4984 8.93849 84.9164 9.34365 86.1572 10.154C87.4233 10.9643 88.3982 12.1164 89.0819 13.6104C89.7909 15.0791 90.1455 16.7757 90.1455 18.7002C90.1455 20.6247 89.7909 22.3086 89.0819 23.752C88.3982 25.1953 87.436 26.3095 86.1952 27.0945C84.9544 27.8795 83.5237 28.272 81.9031 28.272C80.5863 28.272 79.4089 27.9934 78.3707 27.4363C77.3324 26.8792 76.5348 26.1069 75.9777 25.1193V32.8679C75.9777 33.5263 75.7625 34.0454 75.332 34.4252C74.9015 34.8051 74.3318 34.995 73.6228 34.995C72.9137 34.995 72.3313 34.7924 71.8755 34.3873C71.445 33.9821 71.2298 33.4503 71.2298 32.792V11.2555C71.2298 10.5718 71.4324 10.0273 71.8375 9.62219C72.268 9.21704 72.8378 9.01446 73.5468 9.01446C74.2558 9.01446 74.8256 9.21704 75.256 9.62219C75.6865 10.0273 75.9017 10.5718 75.9017 11.2555V12.2051C76.4588 11.1668 77.2565 10.3692 78.2947 9.81211C79.3582 9.2297 80.561 8.93849 81.9031 8.93849ZM80.6496 24.5876C82.1437 24.5876 83.3085 24.0811 84.1441 23.0683C84.9797 22.03 85.3976 20.574 85.3976 18.7002C85.3976 16.7757 84.9797 15.2817 84.1441 14.2182C83.3085 13.1546 82.1437 12.6229 80.6496 12.6229C79.1303 12.6229 77.9528 13.142 77.1172 14.1802C76.3069 15.2184 75.9017 16.6997 75.9017 18.6242C75.9017 20.5234 76.3069 21.9921 77.1172 23.0303C77.9528 24.0685 79.1303 24.5876 80.6496 24.5876Z" fill="#684DB9"/>
<path d="M96.397 28.196C95.7133 28.196 95.1435 28.0061 94.6877 27.6262C94.2572 27.2211 94.042 26.6513 94.042 25.917V3.24101C94.042 2.50667 94.2572 1.94958 94.6877 1.56975C95.1435 1.18992 95.7133 1 96.397 1C97.0807 1 97.6504 1.18992 98.1062 1.56975C98.562 1.94958 98.7899 2.50667 98.7899 3.24101V25.917C98.7899 26.6513 98.562 27.2211 98.1062 27.6262C97.6504 28.0061 97.0807 28.196 96.397 28.196Z" fill="#684DB9"/>
<path d="M112.156 28.272C110.257 28.272 108.586 27.8795 107.143 27.0945C105.725 26.3095 104.623 25.1827 103.838 23.714C103.053 22.2453 102.661 20.536 102.661 18.5862C102.661 16.6364 103.053 14.9398 103.838 13.4965C104.623 12.0278 105.725 10.901 107.143 10.116C108.586 9.33099 110.257 8.93849 112.156 8.93849C114.056 8.93849 115.714 9.33099 117.132 10.116C118.576 10.901 119.677 12.0278 120.437 13.4965C121.222 14.9398 121.614 16.6364 121.614 18.5862C121.614 20.536 121.222 22.2453 120.437 23.714C119.677 25.1827 118.576 26.3095 117.132 27.0945C115.714 27.8795 114.056 28.272 112.156 28.272ZM112.118 24.5876C113.663 24.5876 114.841 24.0811 115.651 23.0683C116.461 22.0554 116.866 20.5614 116.866 18.5862C116.866 16.6364 116.461 15.1551 115.651 14.1422C114.841 13.104 113.676 12.5849 112.156 12.5849C110.637 12.5849 109.46 13.104 108.624 14.1422C107.814 15.1551 107.409 16.6364 107.409 18.5862C107.409 20.5614 107.814 22.0554 108.624 23.0683C109.434 24.0811 110.599 24.5876 112.118 24.5876Z" fill="#684DB9"/>
<path d="M133.586 8.93849C136.169 8.93849 138.081 9.58421 139.322 10.8756C140.588 12.1417 141.221 14.0789 141.221 16.6871V25.955C141.221 26.6387 141.018 27.1831 140.613 27.5883C140.208 27.9681 139.651 28.158 138.942 28.158C138.284 28.158 137.739 27.9554 137.309 27.5503C136.904 27.1451 136.701 26.6134 136.701 25.955V25.1193C136.271 26.1069 135.587 26.8792 134.65 27.4363C133.738 27.9934 132.675 28.272 131.459 28.272C130.219 28.272 129.092 28.0187 128.079 27.5123C127.066 27.0058 126.268 26.3095 125.686 25.4232C125.103 24.5369 124.812 23.5494 124.812 22.4605C124.812 21.0931 125.154 20.0169 125.838 19.2319C126.547 18.447 127.686 17.8772 129.256 17.5227C130.826 17.1682 132.991 16.9909 135.751 16.9909H136.701V16.1173C136.701 14.8765 136.435 13.9776 135.903 13.4205C135.372 12.8381 134.511 12.5469 133.321 12.5469C132.586 12.5469 131.839 12.6609 131.079 12.8888C130.32 13.0913 129.421 13.3952 128.383 13.8003C127.724 14.1295 127.243 14.2941 126.939 14.2941C126.484 14.2941 126.104 14.1295 125.8 13.8003C125.521 13.4712 125.382 13.0407 125.382 12.5089C125.382 12.0784 125.483 11.7113 125.686 11.4074C125.914 11.0782 126.281 10.7744 126.787 10.4958C127.674 10.0147 128.725 9.63485 129.94 9.35631C131.181 9.07777 132.396 8.93849 133.586 8.93849ZM132.409 24.8535C133.675 24.8535 134.701 24.4357 135.486 23.6C136.296 22.7391 136.701 21.6376 136.701 20.2955V19.4978H136.017C134.321 19.4978 133.004 19.5738 132.067 19.7257C131.13 19.8777 130.459 20.1435 130.054 20.5234C129.649 20.9032 129.446 21.4223 129.446 22.0807C129.446 22.891 129.725 23.562 130.282 24.0938C130.864 24.6002 131.573 24.8535 132.409 24.8535Z" fill="#684DB9"/>
<path d="M161.544 1C162.253 1 162.835 1.20258 163.291 1.60773C163.747 2.01289 163.974 2.54465 163.974 3.20303V25.917C163.974 26.6007 163.759 27.1451 163.329 27.5503C162.898 27.9554 162.329 28.158 161.619 28.158C160.91 28.158 160.341 27.9554 159.91 27.5503C159.48 27.1451 159.265 26.6007 159.265 25.917V24.9674C158.707 26.0056 157.897 26.8159 156.834 27.3983C155.795 27.9807 154.605 28.272 153.263 28.272C151.668 28.272 150.237 27.8668 148.971 27.0565C147.73 26.2462 146.755 25.1067 146.046 23.638C145.363 22.144 145.021 20.4348 145.021 18.5103C145.021 16.5858 145.363 14.9019 146.046 13.4585C146.755 12.0151 147.73 10.901 148.971 10.116C150.212 9.33099 151.643 8.93849 153.263 8.93849C154.605 8.93849 155.795 9.21704 156.834 9.77413C157.872 10.3312 158.669 11.1162 159.227 12.1291V3.12706C159.227 2.49401 159.429 1.98757 159.834 1.60773C160.265 1.20258 160.835 1 161.544 1ZM154.517 24.5876C156.036 24.5876 157.201 24.0685 158.011 23.0303C158.847 21.9921 159.265 20.5107 159.265 18.5862C159.265 16.6617 158.847 15.1931 158.011 14.1802C157.201 13.142 156.049 12.6229 154.555 12.6229C153.035 12.6229 151.858 13.1293 151.022 14.1422C150.187 15.1551 149.769 16.6111 149.769 18.5103C149.769 20.4348 150.187 21.9288 151.022 22.9923C151.858 24.0558 153.023 24.5876 154.517 24.5876Z" fill="#684DB9"/>
<path d="M171.024 28.158C170.669 28.158 170.378 28.0441 170.15 27.8162C169.947 27.5883 169.846 27.2971 169.846 26.9425V2.3674C169.846 2.03821 169.96 1.75966 170.188 1.53177C170.441 1.30387 170.745 1.18992 171.1 1.18992H185.153C185.483 1.18992 185.736 1.27854 185.913 1.4558C186.116 1.63305 186.217 1.88628 186.217 2.21546C186.217 2.54465 186.116 2.79787 185.913 2.97513C185.736 3.12706 185.483 3.20303 185.153 3.20303H172.201V13.3445H184.394C184.723 13.3445 184.976 13.4332 185.153 13.6104C185.356 13.7877 185.457 14.0409 185.457 14.3701C185.457 14.6993 185.356 14.9525 185.153 15.1298C184.976 15.307 184.723 15.3956 184.394 15.3956H172.201V26.9425C172.201 27.3224 172.1 27.6262 171.897 27.8541C171.695 28.0567 171.403 28.158 171.024 28.158Z" fill="#684DB9"/>
<path d="M193.121 28.158C192.767 28.158 192.476 28.0567 192.248 27.8541C192.045 27.6516 191.944 27.3604 191.944 26.9805V10.3439C191.944 9.96404 192.045 9.67284 192.248 9.47026C192.476 9.26768 192.767 9.16639 193.121 9.16639C193.476 9.16639 193.754 9.26768 193.957 9.47026C194.159 9.67284 194.261 9.96404 194.261 10.3439V26.9805C194.261 27.3604 194.159 27.6516 193.957 27.8541C193.754 28.0567 193.476 28.158 193.121 28.158ZM193.121 4.87429C192.615 4.87429 192.197 4.72236 191.868 4.41849C191.564 4.11463 191.412 3.72213 191.412 3.24101C191.412 2.73457 191.564 2.32941 191.868 2.02555C192.197 1.72168 192.615 1.56975 193.121 1.56975C193.628 1.56975 194.033 1.72168 194.337 2.02555C194.666 2.32941 194.83 2.73457 194.83 3.24101C194.83 3.72213 194.666 4.11463 194.337 4.41849C194.033 4.72236 193.628 4.87429 193.121 4.87429Z" fill="#684DB9"/>
<path d="M201.541 28.158C201.187 28.158 200.896 28.0567 200.668 27.8541C200.465 27.6516 200.364 27.3604 200.364 26.9805V2.17748C200.364 1.79765 200.465 1.50644 200.668 1.30387C200.896 1.10129 201.187 1 201.541 1C201.871 1 202.136 1.10129 202.339 1.30387C202.567 1.50644 202.681 1.79765 202.681 2.17748V26.9805C202.681 27.3604 202.567 27.6516 202.339 27.8541C202.136 28.0567 201.871 28.158 201.541 28.158Z" fill="#684DB9"/>
<path d="M222.914 24.0178C223.142 24.0178 223.332 24.1191 223.483 24.3217C223.661 24.499 223.749 24.7142 223.749 24.9674C223.749 25.5245 223.319 26.0689 222.458 26.6007C220.635 27.6895 218.71 28.234 216.684 28.234C213.874 28.234 211.658 27.3857 210.037 25.6891C208.417 23.9925 207.606 21.6629 207.606 18.7002C207.606 16.801 207.961 15.1298 208.67 13.6864C209.404 12.2177 210.417 11.0909 211.709 10.3059C213.025 9.49558 214.532 9.09043 216.229 9.09043C218.609 9.09043 220.483 9.86275 221.85 11.4074C223.243 12.9267 223.939 15.0285 223.939 17.7126C223.939 18.1684 223.838 18.5103 223.635 18.7382C223.433 18.9407 223.104 19.042 222.648 19.042H209.999C210.075 21.3717 210.683 23.1442 211.823 24.3597C212.962 25.5751 214.57 26.1829 216.647 26.1829C217.735 26.1829 218.647 26.0436 219.381 25.7651C220.116 25.4612 220.901 25.0687 221.736 24.5876C222.293 24.2078 222.686 24.0178 222.914 24.0178ZM216.229 10.9896C214.456 10.9896 213.038 11.5467 211.975 12.6609C210.911 13.775 210.278 15.3323 210.075 17.3328H221.812C221.762 15.307 221.255 13.7497 220.293 12.6609C219.331 11.5467 217.976 10.9896 216.229 10.9896Z" fill="#684DB9"/>
<path d="M9.80727 12.2674C10.3351 12.2373 10.7262 11.7801 10.7262 11.2538C10.7262 11.237 10.7258 11.22 10.725 11.2024C10.7389 6.54251 14.3164 2.78034 18.6814 2.78034C23.0476 2.78034 26.626 6.54394 26.6378 11.2056C26.6373 11.2201 26.6368 11.2373 26.6368 11.2522C26.6368 11.7798 27.0296 12.2377 27.5586 12.266C31.5488 12.4803 34.6961 15.9673 34.6961 20.2319C34.6961 22.6521 33.6792 24.9125 31.9117 26.4366C31.5001 26.7915 31.4416 27.4236 31.7723 27.8544C32.1095 28.2939 32.729 28.3647 33.1493 28.0022C35.3696 26.0877 36.6398 23.2545 36.6398 20.2318C36.6398 15.227 33.1607 11.0363 28.5455 10.3298C28.1138 4.98301 23.8665 0.75 18.6814 0.75C13.4948 0.75 9.24662 4.98515 8.81699 10.3342C4.21728 11.0537 0.75 15.2424 0.75 20.232C0.75 25.7422 4.98224 30.25 10.2151 30.25H24.2291C24.7793 30.25 25.201 29.7815 25.201 29.2349C25.201 28.6882 24.7793 28.2197 24.2291 28.2197H10.2151C6.08152 28.2196 2.69371 24.65 2.69371 20.232C2.69371 15.981 5.83072 12.4942 9.80727 12.2674ZM9.80727 12.2674L9.79306 12.0178M9.80727 12.2674C9.80728 12.2674 9.80729 12.2674 9.8073 12.2674L9.79306 12.0178M9.79306 12.0178C10.1761 11.996 10.4762 11.6603 10.4762 11.2538C10.4762 11.2386 10.4758 11.2237 10.475 11.2085L9.05208 10.5528C4.48633 11.1616 1 15.2847 1 20.232C1 25.618 5.13384 30 10.2151 30H24.2291C24.6277 30 24.951 29.6574 24.951 29.2349C24.951 28.8124 24.6277 28.4697 24.2291 28.4697H10.2151C5.92992 28.4696 2.44371 24.7742 2.44371 20.232C2.44371 15.861 5.67198 12.2528 9.79306 12.0178Z" fill="#684DB9" stroke="#684DB9" stroke-width="0.5"/>
<mask id="path-3-inside-1_3_55" fill="white">
<path d="M19.2845 13.2735V23.0308C19.2845 23.4533 19.6078 23.796 20.0063 23.796C20.4049 23.796 20.7282 23.4533 20.7282 23.0308V13.2735C20.7282 12.851 20.4049 12.5084 20.0063 12.5084C19.6078 12.5084 19.2845 12.851 19.2845 13.2735Z"/>
</mask>
<path d="M19.2845 13.2735V23.0308C19.2845 23.4533 19.6078 23.796 20.0063 23.796C20.4049 23.796 20.7282 23.4533 20.7282 23.0308V13.2735C20.7282 12.851 20.4049 12.5084 20.0063 12.5084C19.6078 12.5084 19.2845 12.851 19.2845 13.2735Z" fill="#684DB9"/>
<path d="M10.2845 13.2735V23.0308H28.2845V13.2735H10.2845ZM10.2845 23.0308C10.2845 27.9226 14.1503 32.796 20.0063 32.796V14.796C25.0652 14.796 28.2845 18.984 28.2845 23.0308H10.2845ZM20.0063 32.796C25.8624 32.796 29.7282 27.9226 29.7282 23.0308H11.7282C11.7282 18.984 14.9475 14.796 20.0063 14.796V32.796ZM29.7282 23.0308V13.2735H11.7282V23.0308H29.7282ZM29.7282 13.2735C29.7282 8.38172 25.8624 3.50836 20.0063 3.50836V21.5084C14.9475 21.5084 11.7282 17.3203 11.7282 13.2735H29.7282ZM20.0063 3.50836C14.1503 3.50836 10.2845 8.38172 10.2845 13.2735H28.2845C28.2845 17.3203 25.0652 21.5084 20.0063 21.5084V3.50836Z" fill="#684DB9" mask="url(#path-3-inside-1_3_55)"/>
<mask id="path-5-inside-2_3_55" fill="white">
<path d="M24.1351 14.6924C24.3199 14.6924 24.5045 14.6176 24.6455 14.4683C24.9274 14.1695 24.9274 13.685 24.6455 13.3862L20.5169 9.00983C20.235 8.71104 19.7778 8.71104 19.4961 9.00983L15.3674 13.3862C15.0855 13.685 15.0855 14.1695 15.3674 14.4683C15.6493 14.7671 16.1065 14.7671 16.3882 14.4683L20.0064 10.633L23.6246 14.4683C23.7656 14.6176 23.9504 14.6924 24.1351 14.6924Z"/>
</mask>
<path d="M24.1351 14.6924C24.3199 14.6924 24.5045 14.6176 24.6455 14.4683C24.9274 14.1695 24.9274 13.685 24.6455 13.3862L20.5169 9.00983C20.235 8.71104 19.7778 8.71104 19.4961 9.00983L15.3674 13.3862C15.0855 13.685 15.0855 14.1695 15.3674 14.4683C15.6493 14.7671 16.1065 14.7671 16.3882 14.4683L20.0064 10.633L23.6246 14.4683C23.7656 14.6176 23.9504 14.6924 24.1351 14.6924Z" fill="#684DB9"/>
<path d="M24.6455 14.4683L31.1895 20.6471L31.1921 20.6443L24.6455 14.4683ZM24.6455 13.3862L18.099 19.5622L18.099 19.5622L24.6455 13.3862ZM20.5169 9.00983L27.0634 2.83385L27.0634 2.83385L20.5169 9.00983ZM19.4961 9.00983L26.0426 15.1858L26.0439 15.1844L19.4961 9.00983ZM15.3674 13.3862L21.9139 19.5622L21.9139 19.5622L15.3674 13.3862ZM16.3882 14.4683L9.84168 8.29231L9.84036 8.2937L16.3882 14.4683ZM20.0064 10.633L26.553 4.45703L20.0064 -2.4823L13.4599 4.45703L20.0064 10.633ZM23.6246 14.4683L17.0781 20.6443L17.0807 20.6471L23.6246 14.4683ZM24.1351 23.6924C26.7822 23.6924 29.3384 22.6075 31.1895 20.6471L18.1016 8.28952C19.6706 6.6278 21.8576 5.69236 24.1351 5.69236V23.6924ZM31.1921 20.6443C34.7453 16.8779 34.7453 10.9766 31.1921 7.21023L18.099 19.5622C15.1096 16.3934 15.1096 11.4611 18.099 8.29231L31.1921 20.6443ZM31.1921 7.21023L27.0634 2.83385L13.9703 15.1858L18.099 19.5622L31.1921 7.21023ZM27.0634 2.83385C23.2301 -1.2295 16.7832 -1.23157 12.9482 2.83524L26.0439 15.1844C22.7725 18.6536 17.2399 18.6516 13.9703 15.1858L27.0634 2.83385ZM12.9495 2.83385L8.82085 7.21023L21.9139 19.5622L26.0426 15.1858L12.9495 2.83385ZM8.82085 7.21023C5.26768 10.9766 5.26768 16.8779 8.82085 20.6443L21.9139 8.29231C24.9033 11.4611 24.9033 16.3934 21.9139 19.5622L8.82085 7.21023ZM8.82085 20.6443C12.6542 24.7076 19.1011 24.7097 22.9361 20.6429L9.84036 8.2937C13.1118 4.82449 18.6444 4.82656 21.9139 8.29231L8.82085 20.6443ZM22.9348 20.6443L26.5529 16.809L13.4599 4.45703L9.84168 8.29231L22.9348 20.6443ZM13.4599 16.809L17.0781 20.6443L30.1711 8.29231L26.553 4.45703L13.4599 16.809ZM17.0807 20.6471C18.9323 22.6081 21.489 23.6924 24.1351 23.6924V5.69236C26.4118 5.69236 28.5989 6.62719 30.1685 8.28952L17.0807 20.6471Z" fill="#684DB9" mask="url(#path-5-inside-2_3_55)"/>
</svg>
